PathFileType	4	(X/Y/Z)	subject01_walk1.trc
DataRate	CameraRate	NumFrames	NumMarkers	Units	OrigDataRate	OrigDataStartFrame	OrigNumFrames
60.00	60.00	       8	41	mm	60.00	57	       151
Frame#	Time	R.ASIS			L.ASIS			V.Sacral			R.Thigh.Upper			R.Thigh.Front			R.Thigh.Rear			L.Thigh.Upper			L.Thigh.Front			L.Thigh.Rear			R.Shank.Upper			R.Shank.Front			R.Shank.Rear			L.Shank.Upper			L.Shank.Front			L.Shank.Rear			R.Heel			R.Midfoot.Sup			R.Midfoot.Lat			R.Toe.Tip			L.Heel			L.Midfoot.Sup			L.Midfoot.Lat			L.Toe.Tip			Sternum			R.Acromium			L.Acromium			R.Bicep			L.Bicep			R.Elbow			L.Elbow			R.Wrist.Med			R.Wrist.Lat			L.Wrist.Med			L.Wrist.Lat			R.Toe.Lat			R.Toe.Med			L.Toe.Lat			L.Toe.Med			R.Temple			L.Temple			Top.Head			
		X1	Y1	Z1	X2	Y2	Z2	X3	Y3	Z3	X4	Y4	Z4	X5	Y5	Z5	X6	Y6	Z6	X7	Y7	Z7	X8	Y8	Z8	X9	Y9	Z9	X10	Y10	Z10	X11	Y11	Z11	X12	Y12	Z12	X13	Y13	Z13	X14	Y14	Z14	X15	Y15	Z15	X16	Y16	Z16	X17	Y17	Z17	X18	Y18	Z18	X19	Y19	Z19	X20	Y20	Z20	X21	Y21	Z21	X22	Y22	Z22	X23	Y23	Z23	X24	Y24	Z24	X25	Y25	Z25	X26	Y26	Z26	X27	Y27	Z27	X28	Y28	Z28	X29	Y29	Z29	X30	Y30	Z30	X31	Y31	Z31	X32	Y32	Z32	X33	Y33	Z33	X34	Y34	Z34	X35	Y35	Z35	X36	Y36	Z36	X37	Y37	Z37	X38	Y38	Z38	X39	Y39	Z39	X40	Y40	Z40	X41	Y41	Z41	

57	0.933000	1628.252080	1079.552490	1169.093550	1619.791080	1071.070680	908.578720	1425.117490	1072.630740	1052.941180	1612.466250	755.512760	1214.407960	1677.096500	699.524350	1118.621190	1615.232420	633.165040	1202.642940	1619.202270	767.265870	840.851940	1727.261290	750.986080	883.962490	1650.088810	660.931150	845.211880	1557.247800	458.506590	1186.454150	1632.647950	420.119110	1132.875750	1565.204770	371.993590	1190.931110	1608.946660	487.769260	842.723800	1610.458680	415.374480	893.494160	1560.690860	472.091160	842.400130	1471.469910	70.980000	1096.005920	1617.301820	78.390500	1070.208890	1604.305730	62.821550	1176.291400	1759.127990	49.394240	1119.968750	1293.645110	293.302090	956.247140	1408.186520	164.145690	963.514170	1377.212550	174.230470	870.248020	1456.614500	68.159970	925.524660	1648.166630	1382.886960	1040.920580	1558.511960	1464.498290	1258.839630	1570.484310	1505.764040	841.970470	1571.938780	1261.904300	1300.988620	1569.701660	1268.882200	799.276950	1535.005000	1156.814700	1330.548770	1510.694890	1180.506710	758.687710	1705.283450	948.018680	1312.189420	1667.712830	926.909300	1362.035490	1599.963930	942.294920	792.196150	1554.049320	939.472410	731.892820	1691.697080	38.976460	1195.851940	1704.097350	47.287520	1085.981510	1398.754460	110.879350	856.730560	1428.117280	103.417890	956.060320	1716.385070	1599.899050	1138.904270	1729.155880	1609.122680	999.980660	1727.512940	1779.204350	1085.299550	
58	0.950000	1623.448180	1079.392460	1171.803440	1618.754460	1073.335080	911.032880	1423.162110	1074.510500	1053.721580	1603.323120	754.852290	1215.073880	1667.846130	699.034360	1120.084000	1603.702510	633.278500	1203.697910	1627.492680	771.345700	841.609650	1734.036740	757.394100	887.505010	1660.205080	665.691040	846.497800	1541.753230	458.921510	1186.338970	1616.355350	419.934970	1133.164990	1549.299380	372.021330	1190.362780	1625.299010	489.743710	845.405400	1629.502930	418.215060	896.067740	1577.803830	471.896390	844.137340	1452.693760	71.331510	1095.963910	1598.625550	78.338810	1070.057790	1585.230530	62.790000	1175.955750	1740.291020	48.908230	1120.000630	1318.638400	277.860600	955.926620	1440.344300	160.871980	965.954710	1412.251800	165.490710	871.484020	1496.988280	64.831670	928.550900	1646.225590	1384.362060	1041.920090	1558.006590	1467.069700	1259.332790	1567.330320	1507.111690	842.779460	1573.478940	1264.399290	1301.989720	1564.180420	1270.518680	799.607300	1537.949280	1158.810550	1332.597380	1502.735870	1182.016600	760.606120	1712.071720	953.261410	1310.884520	1675.670230	931.420840	1361.417420	1592.608030	945.043210	793.599000	1547.604250	941.266720	732.905640	1673.064510	39.671050	1195.960650	1684.615840	46.736620	1085.942050	1435.864200	102.598590	859.099000	1465.322690	97.559570	958.520050	1716.338560	1601.737670	1139.117130	1728.046570	1610.447510	1000.794570	1727.566410	1780.504390	1085.058040	
59	0.967000	1620.322940	1079.445560	1173.659900	1617.135680	1074.671510	912.383090	1421.029170	1075.913450	1054.327380	1593.914310	754.911010	1216.063610	1658.086910	697.842290	1121.513420	1591.560180	632.950810	1203.910110	1634.884400	775.138920	842.602170	1739.579530	763.740720	890.576880	1669.191830	670.444030	848.798710	1526.890930	459.270230	1186.951370	1600.670960	419.254300	1133.736740	1533.669800	372.584260	1190.782200	1638.682130	491.638120	846.207000	1649.536620	420.674620	898.789020	1594.183290	470.749510	845.786870	1434.079770	71.689820	1095.843730	1579.994510	78.271410	1069.801200	1566.203000	62.852340	1175.716110	1721.556950	48.346390	1120.079350	1345.350520	259.530730	955.770530	1474.818910	152.955510	967.525210	1448.771510	155.149630	872.450590	1539.390080	60.925080	930.965450	1644.624020	1385.383670	1042.664220	1557.344910	1468.610960	1260.401670	1566.330510	1507.686280	842.820020	1575.477970	1265.713260	1303.617890	1557.675420	1271.165410	800.286790	1540.501710	1160.391970	1334.366790	1496.046420	1184.036990	762.297810	1718.489560	958.714360	1309.640840	1683.514280	935.328550	1360.149750	1586.413570	946.992680	794.371220	1540.720210	942.497190	734.252410	1654.461670	39.327510	1195.673050	1665.271730	46.236210	1085.874490	1476.517060	94.049290	860.788830	1504.986720	90.893920	960.449600	1716.419070	1603.295290	1139.158080	1726.482480	1611.581910	1000.704950	1726.084780	1781.963260	1085.188670	
60	0.983000	1619.027100	1079.988040	1175.359540	1617.677430	1076.498780	913.834230	1418.758390	1076.864260	1054.817110	1585.253850	754.772520	1216.494020	1648.020870	695.875180	1122.705740	1579.450070	632.720150	1204.776860	1640.830140	778.464840	843.913190	1745.286250	769.152400	894.545330	1676.657780	674.171450	850.075350	1511.138920	460.204250	1186.556140	1586.100280	419.412780	1134.087460	1518.690060	373.223540	1190.581710	1654.023620	491.509610	849.158550	1667.084900	422.674190	900.503050	1609.344540	468.702790	847.589740	1415.633060	72.069150	1095.527570	1561.399900	78.217360	1069.483120	1547.220950	62.962600	1175.559040	1702.796260	47.728810	1120.153650	1374.066190	238.838520	956.029110	1511.518070	142.612080	968.276150	1486.655640	143.869710	872.973290	1583.809450	57.155930	932.247860	1644.241580	1385.758180	1042.814290	1555.533140	1469.307500	1261.490260	1564.630740	1507.810180	843.095150	1574.705930	1266.467040	1304.727870	1552.456850	1271.758060	800.790510	1542.812440	1161.558110	1335.887270	1488.610140	1184.976440	763.516130	1725.711300	963.834590	1308.203060	1691.312680	939.965030	1359.309510	1580.224670	948.751460	794.935530	1533.584660	943.669560	736.305080	1630.936100	38.619920	1195.675810	1646.147280	45.821160	1085.833150	1519.389340	85.565000	861.609220	1547.088560	84.052020	961.422390	1715.310790	1604.051270	1138.803050	1725.775760	1612.497440	1000.849040	1724.790650	1782.677370	1084.673700	
61	1.000000	1615.439270	1079.433110	1176.575780	1614.924680	1077.574220	915.034000	1416.413790	1077.430050	1055.187490	1578.210210	755.449100	1216.818730	1639.337280	695.551090	1122.456700	1569.694460	632.877620	1203.875020	1645.006590	781.127560	845.496510	1747.606080	773.874630	898.690010	1682.635250	677.697690	852.294880	1497.125640	460.559020	1186.119750	1571.224550	419.595180	1133.874510	1501.651700	373.553010	1189.505680	1664.544800	491.966710	852.029720	1684.000060	423.285220	902.751760	1622.894170	465.779420	849.721680	1397.266480	72.574860	1094.960990	1542.840820	78.225620	1069.159930	1528.221620	63.163900	1175.439290	1683.927800	47.143180	1120.174130	1404.931520	216.461760	956.751570	1550.162960	131.497920	968.293330	1525.711730	132.292140	872.937190	1629.908810	54.111140	932.086210	1643.752440	1385.775760	1042.902620	1556.129090	1470.800290	1261.768400	1562.545590	1507.446290	843.590440	1577.546630	1268.354610	1305.100220	1547.212650	1271.576170	801.378450	1545.008480	1162.305180	1337.169400	1481.898130	1185.765990	764.657360	1731.049990	968.626530	1306.131350	1699.111570	943.890140	1357.452580	1575.775210	949.798340	795.568800	1526.796200	943.968080	738.704280	1613.548030	38.640170	1195.388280	1627.365970	45.509820	1085.849980	1563.260310	77.439280	861.502400	1591.252620	77.516720	961.186840	1715.051330	1604.413450	1138.870540	1724.427920	1612.510380	1000.219060	1723.820740	1783.117550	1084.208320	
62	1.017000	1612.789670	1078.693120	1177.658750	1613.395690	1078.023560	915.765970	1414.062710	1077.717900	1055.369930	1570.808960	755.632630	1216.445270	1630.036070	693.396610	1123.434270	1558.328920	632.523070	1204.167360	1647.394710	782.929870	847.263870	1748.710880	776.829220	902.709270	1686.757390	679.793880	854.867690	1482.866790	462.024960	1185.562480	1557.339840	419.217990	1133.911480	1487.024930	374.771850	1188.672490	1673.930850	490.726840	856.712250	1699.360840	423.917020	905.014790	1634.714110	461.949130	852.239700	1378.836700	73.340710	1094.208660	1524.294430	78.338360	1068.882990	1509.229460	63.476430	1175.297200	1664.995180	46.686790	1120.144640	1438.079100	193.239430	957.972730	1590.422550	120.718150	967.632180	1565.686100	121.088880	872.331840	1677.019170	52.214310	930.379430	1641.456360	1385.584590	1043.142880	1555.722600	1471.065430	1262.068270	1561.154970	1507.016110	843.251880	1578.347840	1268.748540	1305.811650	1542.586180	1271.362920	802.040330	1547.123290	1162.615600	1338.216000	1476.494350	1186.439450	765.017990	1736.356140	973.081850	1303.696660	1705.998470	947.038090	1355.558930	1570.662720	950.006960	796.966600	1520.744690	944.259520	740.314610	1595.920040	38.540370	1194.449860	1609.012080	45.327360	1085.925830	1607.422420	70.132210	860.469670	1636.834590	71.751850	959.730980	1714.188170	1604.673710	1138.646770	1723.717410	1612.138430	999.839550	1723.219480	1783.013180	1083.472000	
63	1.033000	1610.611510	1077.910520	1178.770030	1611.169620	1077.655520	916.918760	1411.746150	1077.822140	1055.297180	1560.012210	755.117490	1216.867170	1620.515080	692.168700	1123.186040	1548.467710	632.946470	1202.960920	1648.123230	783.715760	849.131500	1749.554260	778.750920	905.990010	1688.686040	681.295290	856.886440	1468.221620	461.960020	1185.456070	1542.451290	419.300320	1133.401540	1471.493530	375.033510	1188.332760	1682.043330	490.141820	859.659390	1713.666750	424.246920	906.034420	1644.990780	457.173920	855.051820	1360.298710	74.390570	1093.394170	1505.705290	78.563770	1068.685290	1490.314090	63.847110	1175.108990	1646.097780	46.380020	1120.128740	1473.612980	170.137770	959.637970	1632.049500	111.169400	966.359250	1606.264040	110.948390	871.302220	1724.482600	51.903530	927.242550	1639.918820	1384.804930	1043.520900	1555.065310	1470.656370	1262.024630	1559.413090	1505.547360	843.829240	1578.365540	1268.542360	1305.868010	1539.393980	1270.726680	802.016190	1549.080570	1162.483400	1339.023130	1470.913600	1185.710940	766.996480	1741.294860	977.118160	1300.938050	1712.416440	950.557920	1354.122280	1565.888120	949.632690	797.804610	1515.656560	943.768130	741.094270	1576.413210	38.830300	1195.134320	1590.964360	45.276470	1086.035890	1651.808960	64.348340	858.522690	1683.130370	67.308790	957.249200	1713.592830	1604.163700	1137.962550	1723.133120	1611.920900	999.549300	1722.437260	1782.648440	1082.828990	
64	1.050000	1608.026980	1077.456050	1179.363540	1608.947330	1077.136960	916.988500	1409.494260	1077.770140	1054.996110	1552.653260	753.994380	1216.044950	1612.481810	690.332400	1123.592620	1537.561280	632.144350	1203.951340	1647.329590	783.389280	851.047740	1746.473880	779.816650	909.640660	1687.948240	681.386230	858.509800	1454.099120	463.109620	1184.967300	1527.511660	419.337740	1134.165510	1455.610840	375.997890	1187.888150	1689.748840	487.577330	862.031720	1727.245360	424.369020	907.328900	1654.075010	451.503690	857.970790	1341.691800	75.627720	1092.635020	1487.013550	78.867550	1068.576750	1471.481540	64.219330	1174.909840	1627.271790	46.160280	1120.197400	1511.424160	148.153500	961.517810	1674.754030	103.676960	964.630800	1647.093570	102.532880	870.117970	1771.675480	53.687400	923.064330	1639.516850	1384.116700	1043.344870	1553.722230	1470.221440	1261.812870	1558.836850	1504.329830	843.665590	1578.437320	1268.249270	1305.617370	1536.327210	1269.629270	803.167590	1550.745420	1161.953740	1339.571810	1467.748080	1185.500240	767.046830	1746.012210	980.854860	1298.953220	1718.216980	953.149600	1351.880620	1562.234860	949.072140	798.807460	1511.330660	942.467220	744.101120	1556.805050	38.523700	1195.326230	1572.841980	45.261870	1086.141980	1696.595580	60.868460	855.734850	1729.494140	64.799980	954.110850	1713.246030	1603.299930	1137.641880	1722.214840	1610.272090	999.454690	1721.089290	1781.364870	1081.700580	
